#!OML:ASF H:\Pregnant\Project 1\Capture day 1\Session 1\femalepreg.ASF
:FULLY-SPECIFIED
:DEGREES
1334
root 4.83863 15.5621 22.4831 23.4048 -76.0155 -2.06307
lowerback -20.2295 -0.250852 -3.54145
upperback -8.41939 -0.234456 1.76645
thorax 2.19918 -0.222805 3.83869
lowerneck -17.9286 4.67416 4.82951
upperneck 30.5743 4.91658 -0.458486
head 13.4513 2.48142 -0.224418
rclavicle -1.6524e-014 -1.2921e-014
rhumerus -38.2236 -4.24582 -72.014
rradius 36.4068
rwrist -1.81323
rhand -14.2309 -14.4558
rfingers 7.12502
rthumb 11.9064 -44.0973
lclavicle -1.6524e-014 -1.2921e-014
lhumerus -39.6361 3.24819 80.1874
lradius 34.5747
lwrist 36.8188
lhand -21.5379 1.48387
lfingers 7.12502
lthumb 4.85499 31.4083
rfemur -37.9127 19.5884 14.8788
rtibia 37.8472
rfoot -17.3598 -24.1618
rtoes -0.0721108
lfemur -22.1201 -13.0425 -18.6277
ltibia 13.9011
lfoot -8.02612 17.8942
ltoes -9.76979
1335
root 4.83692 15.5618 22.4839 23.4567 -76.0512 -2.12467
lowerback -20.2569 -0.249053 -3.54871
upperback -8.41612 -0.230515 1.76954
thorax 2.21617 -0.221245 3.84717
lowerneck -17.9565 4.66065 4.7999
upperneck 30.5507 4.89946 -0.437601
head 13.4449 2.47373 -0.213644
rclavicle 5.20816e-014 -9.54166e-015
rhumerus -38.1976 -4.33797 -71.9633
rradius 36.0148
rwrist -1.68322
rhand -14.117 -14.4151
rfingers 7.12502
rthumb 12.0163 -44.0501
lclavicle 5.20816e-014 -9.54166e-015
lhumerus -39.6868 3.32499 80.1115
lradius 34.1831
lwrist 36.7948
lhand -21.54 1.51417
lfingers 7.12502
lthumb 4.85293 31.4386
rfemur -37.8987 19.5903 14.895
rtibia 37.8386
rfoot -17.345 -24.1328
rtoes -0.140722
lfemur -22.1063 -13.091 -18.6126
ltibia 13.922
lfoot -8.05033 17.9921
ltoes -9.7309
1336
root 4.83518 15.5615 22.4845 23.5069 -76.081 -2.17934
lowerback -20.2871 -0.249222 -3.55878
upperback -8.41219 -0.228535 1.77354
thorax 2.23542 -0.220636 3.85781
lowerneck -17.989 4.6465 4.77087
upperneck 30.5275 4.88188 -0.419108
head 13.4397 2.46558 -0.203874
rclavicle -1.66979e-014 -2.14687e-014
rhumerus -38.1833 -4.44294 -71.9048
rradius 35.6129
rwrist -1.54214
rhand -13.9785 -14.3556
rfingers 7.12502
rthumb 12.1499 -43.9828
lclavicle -1.66979e-014 -2.14687e-014
lhumerus -39.7387 3.40189 80.0362
lradius 33.7733
lwrist 36.7477
lhand -21.5432 1.54365
lfingers 7.12502
lthumb 4.84981 31.4681
rfemur -37.89 19.5925 14.9086
rtibia 37.8311
rfoot -17.3321 -24.1096
rtoes -0.210518
lfemur -22.1 -13.1418 -18.5956
ltibia 13.9432
lfoot -8.07274 18.0859
ltoes -9.68756
1337
root 4.83342 15.5613 22.4849 23.5497 -76.1048 -2.2213
lowerback -20.32 -0.251005 -3.57115
upperback -8.40769 -0.228065 1.77673
thorax 2.25683 -0.220787 3.8686
lowerneck -18.0253 4.63142 4.74449
upperneck 30.5047 4.86294 -0.403647
head 13.4357 2.45674 -0.195878
rclavicle 1.69464e-014 -2.04748e-014
rhumerus -38.1825 -4.56301 -71.8389
rradius 35.2044
rwrist -1.3864
rhand -13.8375 -14.2905
rfingers 7.12502
rthumb 12.2858 -43.9096
lclavicle 1.69464e-014 -2.04748e-014
lhumerus -39.7921 3.47709 79.9609
lradius 33.3493
lwrist 36.6796
lhand -21.5497 1.57449
lfingers 7.12502
lthumb 4.84362 31.4991
rfemur -37.8867 19.5939 14.9183
rtibia 37.8253
rfoot -17.3218 -24.0913
rtoes -0.274906
lfemur -22.0998 -13.1933 -18.5786
ltibia 13.9618
lfoot -8.09118 18.1726
ltoes -9.64417
1338
root 4.83166 15.5611 22.4853 23.5814 -76.1224 -2.24717
lowerback -20.3558 -0.254449 -3.58558
upperback -8.40215 -0.229127 1.77831
thorax 2.28089 -0.221733 3.87852
lowerneck -18.0649 4.61543 4.72154
upperneck 30.4814 4.84243 -0.391078
head 13.4324 2.44723 -0.189792
rclavicle -1.20265e-014 -3.97569e-015
rhumerus -38.1951 -4.69798 -71.7672
rradius 34.7924
rwrist -1.21698
rhand -13.7181 -14.2343
rfingers 7.12502
rthumb 12.4009 -43.8465
lclavicle -1.20265e-014 -3.97569e-015
lhumerus -39.8468 3.55139 79.8843
lradius 32.9146
lwrist 36.5905
lhand -21.5593 1.6067
lfingers 7.12502
lthumb 4.83436 31.5315
rfemur -37.8886 19.5935 14.9237
rtibia 37.8218
rfoot -17.3136 -24.0779
rtoes -0.333941
lfemur -22.1044 -13.2427 -18.5633
ltibia 13.9763
lfoot -8.10419 18.249
ltoes -9.60681
1339
root 4.82986 15.561 22.4856 23.601 -76.1348 -2.25763
lowerback -20.3936 -0.259526 -3.60214
upperback -8.39479 -0.231619 1.77821
thorax 2.30809 -0.223419 3.88757
lowerneck -18.1072 4.59871 4.7005
upperneck 30.4569 4.82032 -0.379006
head 13.4292 2.43721 -0.184439
rclavicle 4.28878e-014 2.98177e-015
rhumerus -38.2212 -4.84442 -71.6923
rradius 34.3801
rwrist -1.03888
rhand -13.6436 -14.2041
rfingers 7.12502
rthumb 12.4728 -43.8119
lclavicle 4.28878e-014 2.98177e-015
lhumerus -39.9029 3.62736 79.8049
lradius 32.4723
lwrist 36.4794
lhand -21.5696 1.63983
lfingers 7.12502
lthumb 4.82433 31.5649
rfemur -37.894 19.5925 14.9253
rtibia 37.8204
rfoot -17.3072 -24.0698
rtoes -0.387154
lfemur -22.1114 -13.2866 -18.5511
ltibia 13.9865
lfoot -8.11189 18.313
ltoes -9.58079
1340
root 4.82799 15.561 22.4857 23.61 -76.1429 -2.25589
lowerback -20.4326 -0.265938 -3.62036
upperback -8.38476 -0.235176 1.77624
thorax 2.33887 -0.225671 3.89531
lowerneck -18.1518 4.58136 4.68072
upperneck 30.4301 4.79649 -0.365815
head 13.4255 2.42678 -0.17912
rclavicle 2.55935e-015 1.23246e-014
rhumerus -38.26 -5.00197 -71.617
rradius 33.9697
rwrist -0.857469
rhand -13.6158 -14.2061
rfingers 7.12502
rthumb 12.4995 -43.8123
lclavicle 2.55935e-015 1.23246e-014
lhumerus -39.9604 3.70702 79.7207
lradius 32.0256
lwrist 36.3443
lhand -21.5776 1.67187
lfingers 7.12502
lthumb 4.81662 31.5971
rfemur -37.9008 19.5925 14.9242
rtibia 37.8208
rfoot -17.3021 -24.0673
rtoes -0.435821
lfemur -22.1186 -13.3228 -18.5423
ltibia 13.9929
lfoot -8.11499 18.364
ltoes -9.57081
1341
root 4.82604 15.5609 22.4856 23.6106 -76.1478 -2.24633
lowerback -20.4708 -0.273572 -3.63994
upperback -8.37181 -0.23974 1.77297
thorax 2.37246 -0.228428 3.90223
lowerneck -18.1975 4.56362 4.66073
upperneck 30.4002 4.77133 -0.349977
head 13.4206 2.41617 -0.172949
rclavicle -1.28962e-014 1.07344e-014
rhumerus -38.3113 -5.16779 -71.5429
rradius 33.5631
rwrist -0.677521
rhand -13.6156 -14.237
rfingers 7.12502
rthumb 12.4997 -43.8431
lclavicle -1.28962e-014 1.07344e-014
lhumerus -40.0206 3.79235 79.6306
lradius 31.578
lwrist 36.185
lhand -21.5808 1.70312
lfingers 7.12502
lthumb 4.81358 31.6284
rfemur -37.9066 19.594 14.9222
rtibia 37.8226
rfoot -17.2977 -24.07
rtoes -0.481781
lfemur -22.124 -13.3506 -18.5366
ltibia 13.9962
lfoot -8.11381 18.4024
ltoes -9.58259
1342
root 4.82405 15.5609 22.4855 23.6041 -76.149 -2.23117
lowerback -20.5063 -0.282217 -3.6595
upperback -8.3561 -0.245341 1.76846
thorax 2.40778 -0.231698 3.90756
lowerneck -18.244 4.54581 4.63998
upperneck 30.3672 4.7453 -0.330858
head 13.4144 2.4056 -0.165516
rclavicle 1.60519e-014 8.74653e-015
rhumerus -38.3747 -5.34102 -71.4704
rradius 33.1617
rwrist -0.499496
rhand -13.626 -14.2906
rfingers 7.12502
rthumb 12.4897 -43.8974
lclavicle 1.60519e-014 8.74653e-015
lhumerus -40.0851 3.88327 79.5346
lradius 31.1335
lwrist 36.0048
lhand -21.5784 1.73544
lfingers 7.12502
lthumb 4.81584 31.6607
rfemur -37.9103 19.5961 14.9203
rtibia 37.8258
rfoot -17.2942 -24.077
rtoes -0.526026
lfemur -22.1266 -13.3715 -18.5335
ltibia 13.9967
lfoot -8.10855 18.4297
ltoes -9.61516
1343
root 4.82212 15.5609 22.4853 23.5895 -76.1448 -2.20966
lowerback -20.5377 -0.29169 -3.67628
upperback -8.33816 -0.252285 1.76207
thorax 2.44365 -0.235666 3.90895
lowerneck -18.291 4.528 4.6188
upperneck 30.3311 4.71852 -0.308794
head 13.4069 2.39512 -0.156999
rclavicle 4.34841e-014 -1.72943e-014
rhumerus -38.4498 -5.52073 -71.3994
rradius 32.7664
rwrist -0.321596
rhand -13.6263 -14.3564
rfingers 7.12502
rthumb 12.4894 -43.9632
lclavicle 4.34841e-014 -1.72943e-014
lhumerus -40.1549 3.97731 79.4334
lradius 30.6968
lwrist 35.8099
lhand -21.5721 1.7715
lfingers 7.12502
lthumb 4.822 31.6966
rfemur -37.9117 19.5951 14.919
rtibia 37.8303
rfoot -17.2921 -24.086
rtoes -0.5709
lfemur -22.1268 -13.3904 -18.5321
ltibia 13.9936
lfoot -8.09782 18.4485
ltoes -9.66781
1344
root 4.8204 15.5608 22.4854 23.5652 -76.1328 -2.17857
lowerback -20.5647 -0.302509 -3.68829
upperback -8.31888 -0.261708 1.75396
thorax 2.47899 -0.240917 3.90518
lowerneck -18.3383 4.51055 4.59708
upperneck 30.2919 4.69215 -0.285467
head 13.3982 2.38498 -0.147848
rclavicle -2.95941e-014 1.45113e-014
rhumerus -38.5353 -5.70294 -71.3291
rradius 32.3779
rwrist -0.142196
rhand -13.5904 -14.4195
rfingers 7.12502
rthumb 12.5241 -44.0242
lclavicle -2.95941e-014 1.45113e-014
lhumerus -40.2315 4.07251 79.3294
lradius 30.272
lwrist 35.6085
lhand -21.5655 1.8131
lfingers 7.12502
lthumb 4.82834 31.7381
rfemur -37.9123 19.5861 14.9177
rtibia 37.8362
rfoot -17.2919 -24.0946
rtoes -0.617307
lfemur -22.1267 -13.412 -18.5316
ltibia 13.9854
lfoot -8.07964 18.4607
ltoes -9.73671
1345
root 4.819 15.5608 22.4857 23.5292 -76.1111 -2.13431
lowerback -20.5881 -0.315005 -3.69371
upperback -8.29872 -0.274407 1.74406
thorax 2.5138 -0.247887 3.89495
lowerneck -18.3861 4.49351 4.5747
upperneck 30.2495 4.66685 -0.262522
head 13.3882 2.37523 -0.138567
rclavicle -1.12065e-014 -8.34896e-015
rhumerus -38.63 -5.88173 -71.2602
rradius 31.9967
rwrist 0.037561
rhand -13.5107 -14.4726
rfingers 7.12502
rthumb 12.6008 -44.0726
lclavicle -1.12065e-014 -8.34896e-015
lhumerus -40.3152 4.16698 79.2247
lradius 29.8632
lwrist 35.4082
lhand -21.5612 1.8612
lfingers 7.12502
lthumb 4.83252 31.7861
rfemur -37.914 19.5654 14.9153
rtibia 37.8435
rfoot -17.2944 -24.1012
rtoes -0.662228
lfemur -22.1286 -13.4403 -18.5318
ltibia 13.9711
lfoot -8.05329 18.4677
ltoes -9.81314
